<svg width="512" height="512" viewBox="0 0 512 512" fill="none" xmlns="http://www.w3.org/2000/svg">
  <rect width="512" height="512" rx="80" fill="url(#gradient-bg)"/>
  <circle cx="256" cy="256" r="200" fill="url(#gradient-circle)" opacity="0.2"/>
  <g transform="translate(256, 256)">
    <path d="M -15 -120 L -15 -80 M -15 -80 C -50 -80, -70 -60, -70 -20 C -70 20, -50 40, -15 40 C 20 40, 40 60, 40 100 C 40 140, 20 160, -15 160 L -15 200 M 15 -120 L 15 -80 M 15 160 L 15 200 M -70 -20 L 40 -20 M -40 100 L 70 100" 
          stroke="#FFFFFF" stroke-width="16" stroke-linecap="round" stroke-linejoin="round" fill="none"/>
    <g transform="translate(0, 0)">
      <path d="M -80 -50 L -80 60 C -80 100, -60 140, 0 160 C 60 140, 80 100, 80 60 L 80 -50 L 0 -80 Z" 
            fill="url(#gradient-shield)" opacity="0.3"/>
    </g>
  </g>
  <defs>
    <linearGradient id="gradient-bg" x1="0%" y1="0%" x2="100%" y2="100%">
      <stop offset="0%" style="stop-color:#8B5CF6;stop-opacity:1" />
      <stop offset="100%" style="stop-color:#EC4899;stop-opacity:1" />
    </linearGradient>
    <linearGradient id="gradient-circle" x1="0%" y1="0%" x2="100%" y2="100%">
      <stop offset="0%" style="stop-color:#FFFFFF;stop-opacity:0.3" />
      <stop offset="100%" style="stop-color:#FFFFFF;stop-opacity:0.1" />
    </linearGradient>
    <linearGradient id="gradient-shield" x1="0%" y1="0%" x2="0%" y2="100%">
      <stop offset="0%" style="stop-color:#FFFFFF;stop-opacity:0.4" />
      <stop offset="100%" style="stop-color:#FFFFFF;stop-opacity:0.1" />
    </linearGradient>
  </defs>
</svg>


